<svg viewBox="0 0 96 96" xmlns="http://www.w3.org/2000/svg">
  <defs>
    <radialGradient id="shadow" cx="0.5" cy="0.5" r="0.5">
      <stop offset="0" stop-color="#132018" stop-opacity="0.34"/>
      <stop offset="1" stop-color="#132018" stop-opacity="0"/>
    </radialGradient>
    <linearGradient id="gA1" x1="0" y1="0" x2="1" y2="1"><stop offset="0" stop-color="#46DB86"/><stop offset="1" stop-color="#17A85C"/></linearGradient>
    <linearGradient id="gA2" x1="0" y1="0" x2="1" y2="1"><stop offset="0" stop-color="#FFD071"/><stop offset="1" stop-color="#F59E1B"/></linearGradient>
    <linearGradient id="gA3" x1="0" y1="0" x2="1" y2="1"><stop offset="0" stop-color="#8AA4FF"/><stop offset="1" stop-color="#4C6EF5"/></linearGradient>
    <linearGradient id="gA4" x1="0" y1="0" x2="1" y2="1"><stop offset="0" stop-color="#FFA579"/><stop offset="1" stop-color="#F2683C"/></linearGradient>
  </defs>
  <ellipse cx="48" cy="86" rx="26" ry="5" fill="url(#shadow)"/>
  <rect x="15" y="15" width="29" height="29" rx="10" fill="url(#gA1)" stroke="#fff" stroke-width="4"/>
  <rect x="52" y="15" width="29" height="29" rx="10" fill="url(#gA2)" stroke="#fff" stroke-width="4"/>
  <rect x="15" y="52" width="29" height="29" rx="10" fill="url(#gA3)" stroke="#fff" stroke-width="4"/>
  <rect x="52" y="52" width="29" height="29" rx="10" fill="url(#gA4)" stroke="#fff" stroke-width="4"/>
  <path d="M20 20 Q20 18 22 18 L28 18 Q24 24 20 26 Z" fill="#fff" opacity="0.32"/>
  <path d="M57 20 Q57 18 59 18 L65 18 Q61 24 57 26 Z" fill="#fff" opacity="0.32"/>
  <path d="M20 57 Q20 55 22 55 L28 55 Q24 61 20 63 Z" fill="#fff" opacity="0.32"/>
  <path d="M57 57 Q57 55 59 55 L65 55 Q61 61 57 63 Z" fill="#fff" opacity="0.32"/>
  <path d="M47 46 l1.6 3.6 3.6 1.6 -3.6 1.6 -1.6 3.6 -1.6 -3.6 -3.6 -1.6 3.6 -1.6 Z" fill="#fff"/>
</svg>
