<svg viewBox="0 0 96 96" xmlns="http://www.w3.org/2000/svg">
  <defs>
    <radialGradient id="shadow" cx="0.5" cy="0.5" r="0.5">
      <stop offset="0" stop-color="#132018" stop-opacity="0.34"/>
      <stop offset="1" stop-color="#132018" stop-opacity="0"/>
    </radialGradient>
    <linearGradient id="gSofa" x1="0" y1="0" x2="1" y2="1"><stop offset="0" stop-color="#FFD071"/><stop offset="1" stop-color="#F59E1B"/></linearGradient>
  </defs>
  <ellipse cx="48" cy="80" rx="26" ry="5" fill="url(#shadow)"/>
  <rect x="25" y="32" width="46" height="26" rx="13" fill="url(#gSofa)" stroke="#fff" stroke-width="4.5"/>
  <rect x="18" y="47" width="60" height="20" rx="10" fill="url(#gSofa)" stroke="#fff" stroke-width="4.5"/>
  <rect x="27" y="64" width="6" height="8" rx="2.5" fill="#D98A12"/><rect x="63" y="64" width="6" height="8" rx="2.5" fill="#D98A12"/>
  <path d="M30 39 Q30 36 33 36 L37 36 L37 54 Q33 54 30 52 Z" fill="#fff" opacity="0.3"/>
  <ellipse cx="43" cy="44" rx="3.2" ry="4.1" fill="#43354F"/><ellipse cx="53" cy="44" rx="3.2" ry="4.1" fill="#43354F"/>
  <circle cx="41.9" cy="42.5" r="1.4" fill="#fff"/><circle cx="51.9" cy="42.5" r="1.4" fill="#fff"/>
  <circle cx="37" cy="50" r="2.3" fill="#D97706" opacity="0.4"/><circle cx="59" cy="50" r="2.3" fill="#D97706" opacity="0.4"/>
  <path d="M45 51 Q48 54 51 51" stroke="#43354F" stroke-width="2" fill="none" stroke-linecap="round"/>
  <path d="M72 30 l1.2 2.7 2.7 1.2 -2.7 1.2 -1.2 2.7 -1.2 -2.7 -2.7 -1.2 2.7 -1.2 Z" fill="#fff"/>
</svg>
