<svg viewBox="0 0 96 96" xmlns="http://www.w3.org/2000/svg">
  <defs>
    <radialGradient id="shadow" cx="0.5" cy="0.5" r="0.5">
      <stop offset="0" stop-color="#132018" stop-opacity="0.3"/>
      <stop offset="1" stop-color="#132018" stop-opacity="0"/>
    </radialGradient>
    <linearGradient id="gBell" x1="0" y1="0" x2="1" y2="1"><stop offset="0" stop-color="#FFD66B"/><stop offset="1" stop-color="#F5A623"/></linearGradient>
  </defs>
  <ellipse cx="48" cy="84" rx="22" ry="4.5" fill="url(#shadow)"/>
  <rect x="44" y="14" width="8" height="8" rx="4" fill="url(#gBell)" stroke="#fff" stroke-width="3.5"/>
  <path d="M48 20 C 66 20 66 40 68 54 Q69 62 76 66 L20 66 Q27 62 28 54 C 30 40 30 20 48 20 Z" fill="url(#gBell)" stroke="#fff" stroke-width="4.5" stroke-linejoin="round"/>
  <path d="M40 72 Q48 80 56 72 Z" fill="url(#gBell)" stroke="#fff" stroke-width="4" stroke-linejoin="round"/>
  <path d="M38 28 Q34 36 34 50 Q34 56 32 60 Q30 54 31 46 Q32 34 38 28 Z" fill="#fff" opacity="0.32"/>
  <path d="M70 26 l1.3 3 3 1.3 -3 1.3 -1.3 3 -1.3 -3 -3 -1.3 3 -1.3 Z" fill="#fff"/>
</svg>
