<svg viewBox="0 0 96 96" xmlns="http://www.w3.org/2000/svg"><defs><radialGradient id="shadow" cx="0.5" cy="0.5" r="0.5"><stop offset="0" stop-color="#132018" stop-opacity="0.26"/><stop offset="1" stop-color="#132018" stop-opacity="0"/></radialGradient><linearGradient id="gLk" x1="0" y1="0" x2="1" y2="1"><stop offset="0" stop-color="#FFD66B"/><stop offset="1" stop-color="#F5A623"/></linearGradient></defs><ellipse cx="48" cy="84" rx="20" ry="5" fill="url(#shadow)"/><path d="M34 44 V34 Q34 18 48 18 Q62 18 62 34 V44" fill="none" stroke="#fff" stroke-width="12" stroke-linecap="round"/><path d="M34 44 V34 Q34 18 48 18 Q62 18 62 34 V44" fill="none" stroke="#E79512" stroke-width="6" stroke-linecap="round"/><rect x="24" y="42" width="48" height="38" rx="10" fill="url(#gLk)" stroke="#fff" stroke-width="4.5"/><circle cx="48" cy="58" r="5" fill="#fff"/><rect x="45.5" y="60" width="5" height="11" rx="2.5" fill="#fff"/><path d="M30 50 Q28 48 30 48 L34 48 L34 72 Q30 72 30 68 Z" fill="#fff" opacity="0.24"/></svg>
