<svg viewBox="0 0 96 96" xmlns="http://www.w3.org/2000/svg"><defs><radialGradient id="shadow" cx="0.5" cy="0.5" r="0.5"><stop offset="0" stop-color="#132018" stop-opacity="0.26"/><stop offset="1" stop-color="#132018" stop-opacity="0"/></radialGradient><linearGradient id="gRc" x1="0" y1="0" x2="1" y2="1"><stop offset="0" stop-color="#8AA4FF"/><stop offset="1" stop-color="#4C6EF5"/></linearGradient></defs><ellipse cx="48" cy="84" rx="22" ry="5" fill="url(#shadow)"/><path d="M30 16 L66 16 Q68 16 68 18 L68 76 L60 72 L54 76 L48 72 L42 76 L36 72 L28 76 L28 18 Q28 16 30 16 Z" fill="url(#gRc)" stroke="#fff" stroke-width="4.5" stroke-linejoin="round"/><rect x="36" y="28" width="24" height="4.4" rx="2.2" fill="#fff" opacity="0.92"/><rect x="36" y="39" width="24" height="4.4" rx="2.2" fill="#fff" opacity="0.8"/><rect x="36" y="50" width="16" height="4.4" rx="2.2" fill="#fff" opacity="0.65"/><path d="M33 20 Q31 18 33 18 L37 18 L37 68 Q33 68 33 64 Z" fill="#fff" opacity="0.2"/></svg>
